<svg xmlns="http://www.w3.org/2000/svg" xmlns:xlink="http://www.w3.org/1999/xlink" viewBox="0 0 1200 1200"><defs><style>.cls-1{fill-opacity:0.2;fill:url(#Dégradé_sans_nom_522);stroke:url(#Dégradé_sans_nom_410);}.cls-1,.cls-10,.cls-11,.cls-2,.cls-3,.cls-4,.cls-5,.cls-6,.cls-7,.cls-8,.cls-9{stroke-linecap:round;stroke-linejoin:round;stroke-width:8px;}.cls-10,.cls-11,.cls-2,.cls-3,.cls-4,.cls-5,.cls-6,.cls-7,.cls-8,.cls-9{fill:none;}.cls-2{stroke:url(#Nouvelle_nuance_de_dégradé_1_4);}.cls-3{stroke:url(#Nouvelle_nuance_de_dégradé_1_4-2);}.cls-4{stroke:url(#Nouvelle_nuance_de_dégradé_1_4-3);}.cls-5{stroke:url(#Nouvelle_nuance_de_dégradé_1_4-4);}.cls-6{stroke:url(#Nouvelle_nuance_de_dégradé_1_4-5);}.cls-7{stroke:url(#Nouvelle_nuance_de_dégradé_1_4-6);}.cls-8{stroke:url(#Nouvelle_nuance_de_dégradé_1_4-7);}.cls-9{stroke:url(#Nouvelle_nuance_de_dégradé_1_4-8);}.cls-10{stroke:url(#Nouvelle_nuance_de_dégradé_1_4-9);}.cls-11{stroke:url(#Nouvelle_nuance_de_dégradé_1_4-10);}</style><linearGradient id="Dégradé_sans_nom_522" x1="316.53" y1="247.26" x2="883.47" y2="814.19" gradientUnits="userSpaceOnUse"><stop offset="0" stop-color="#41ab34"/><stop offset="0.12" stop-color="#63b854" stop-opacity="0.97"/><stop offset="0.28" stop-color="#85c475" stop-opacity="0.93"/><stop offset="0.44" stop-color="#9ece8d" stop-opacity="0.91"/><stop offset="0.59" stop-color="#add39b" stop-opacity="0.89"/><stop offset="0.74" stop-color="#b2d5a0" stop-opacity="0.89"/><stop offset="1" stop-color="#fff"/></linearGradient><linearGradient id="Dégradé_sans_nom_410" x1="313.71" y1="244.43" x2="886.29" y2="817.02" gradientUnits="userSpaceOnUse"><stop offset="0" stop-color="#6bff5e"/><stop offset="0.03" stop-color="#6df258" stop-opacity="0.96"/><stop offset="0.09" stop-color="#73d048" stop-opacity="0.86"/><stop offset="0.14" stop-color="#78b33a" stop-opacity="0.77"/><stop offset="0.2" stop-color="#74cd46" stop-opacity="0.85"/><stop offset="0.26" stop-color="#70e250" stop-opacity="0.91"/><stop offset="0.32" stop-color="#6df258" stop-opacity="0.96"/><stop offset="0.37" stop-color="#6cfc5c" stop-opacity="0.99"/><stop offset="0.42" stop-color="#6bff5e"/><stop offset="0.5" stop-color="#6fe94f" stop-opacity="0.72"/><stop offset="0.6" stop-color="#73d240" stop-opacity="0.41"/><stop offset="0.68" stop-color="#76c135" stop-opacity="0.19"/><stop offset="0.74" stop-color="#77b72e" stop-opacity="0.05"/><stop offset="0.77" stop-color="#78b32b" stop-opacity="0"/><stop offset="0.84" stop-color="#74ca3b" stop-opacity="0.31"/><stop offset="0.92" stop-color="#6fe64d" stop-opacity="0.68"/><stop offset="0.97" stop-color="#6cf859" stop-opacity="0.91"/><stop offset="1" stop-color="#6bff5e"/></linearGradient><linearGradient id="Nouvelle_nuance_de_dégradé_1_4" x1="571.04" y1="626" x2="728.03" y2="782.99" gradientUnits="userSpaceOnUse"><stop offset="0" stop-color="#6bff5e"/><stop offset="0.07" stop-color="#7efe72"/><stop offset="0.21" stop-color="#affaa7"/><stop offset="0.37" stop-color="#eef5eb"/><stop offset="0.63" stop-color="#e1f0ea"/><stop offset="0.66" stop-color="#d1f2d7"/><stop offset="0.73" stop-color="#adf7ac"/><stop offset="0.81" stop-color="#90fa8a"/><stop offset="0.88" stop-color="#7cfd72"/><stop offset="0.95" stop-color="#6ffe63"/><stop offset="1" stop-color="#6bff5e"/></linearGradient><linearGradient id="Nouvelle_nuance_de_dégradé_1_4-2" x1="549.31" y1="327.95" x2="637.17" y2="415.81" xlink:href="#Nouvelle_nuance_de_dégradé_1_4"/><linearGradient id="Nouvelle_nuance_de_dégradé_1_4-3" x1="549.28" y1="600.68" x2="717.73" y2="769.14" xlink:href="#Nouvelle_nuance_de_dégradé_1_4"/><linearGradient id="Nouvelle_nuance_de_dégradé_1_4-4" x1="523.2" y1="577.34" x2="699.41" y2="753.55" xlink:href="#Nouvelle_nuance_de_dégradé_1_4"/><linearGradient id="Nouvelle_nuance_de_dégradé_1_4-5" x1="599.54" y1="651.6" x2="736.46" y2="788.51" xlink:href="#Nouvelle_nuance_de_dégradé_1_4"/><linearGradient id="Nouvelle_nuance_de_dégradé_1_4-6" x1="498.92" y1="555.58" x2="669.15" y2="725.81" xlink:href="#Nouvelle_nuance_de_dégradé_1_4"/><linearGradient id="Nouvelle_nuance_de_dégradé_1_4-7" x1="476.07" y1="527.36" x2="651.78" y2="703.07" xlink:href="#Nouvelle_nuance_de_dégradé_1_4"/><linearGradient id="Nouvelle_nuance_de_dégradé_1_4-8" x1="494.04" y1="459.45" x2="668.08" y2="633.5" xlink:href="#Nouvelle_nuance_de_dégradé_1_4"/><linearGradient id="Nouvelle_nuance_de_dégradé_1_4-9" x1="509.12" y1="394.14" x2="681.65" y2="566.67" xlink:href="#Nouvelle_nuance_de_dégradé_1_4"/><linearGradient id="Nouvelle_nuance_de_dégradé_1_4-10" x1="629.92" y1="697.03" x2="729.35" y2="796.46" xlink:href="#Nouvelle_nuance_de_dégradé_1_4"/></defs><g id="Graphic_Elements" data-name="Graphic Elements"><path class="cls-1" d="M600,183.63C480.05,293.44,365,306.78,247.48,316.31c0,680.06,352.52,700.06,352.52,700.06h0s352.52-20,352.52-700.06C835,306.78,720,293.44,600,183.63Z"/><path class="cls-2" d="M668.7,836.67c-90.88-30.81-146-211.58-63.62-227.49,74.43-14.37,75,151.81,167.44,89.66"/><path class="cls-3" d="M507.25,375.68c24-15.12,54.32-24.83,92.75-26,31.54,1,57.64,7.67,79.24,18.41"/><path class="cls-4" d="M634.56,846.66C579.65,821,518.76,736.09,533.91,644c5.9-35.9,34.3-64.47,70.46-68.5C698.62,565,696.84,735,779.43,658.65"/><path class="cls-5" d="M597,850.32c-59.26-35-109.11-114-92.07-218.9,7.91-48.7,46.66-87.17,95.67-92.78,108.94-12.46,105,154,181.31,90.36"/><path class="cls-6" d="M699.52,819.8c-52.66-15.29-104.64-100-102.11-153.29a19.45,19.45,0,0,1,29.29-15.79c43.85,26.21,57.13,125,136.43,80.26"/><path class="cls-7" d="M547.09,842.22C492.35,794.45,460.7,723.87,470,637c7.7-71.65,65.62-128.46,137.59-132.14,118.13-6.06,108,140.68,175,95.11"/><path class="cls-8" d="M462.12,779.31c-17.54-39.64-31.37-89.2-23.46-142.14,13.88-92.94,72.75-170.26,167.92-170.27,127.3,0,127.3,116.29,175.32,100.39"/><path class="cls-9" d="M417.41,600c7.68-48.68,69.65-192.1,208.09-175.28,84,10.21,109.87,82.6,148.34,97.36"/><path class="cls-10" d="M429.1,494.55c67-133.31,250.14-149.51,336.69-17.68"/><path class="cls-11" d="M633.77,698.84c14.26,28.87,47.13,81.27,100.11,87.43"/></g></svg>